<?xml version="1.0" standalone="no"?>
<!DOCTYPE svg PUBLIC "-//W3C//DTD SVG 20010904//EN"
 "http://www.w3.org/TR/2001/REC-SVG-20010904/DTD/svg10.dtd">
<svg version="1.0" xmlns="http://www.w3.org/2000/svg"
 width="400.000000pt" height="400.000000pt" viewBox="0 0 400.000000 400.000000"
 preserveAspectRatio="xMidYMid meet">
<metadata>
Created by potrace 1.11, written by Peter Selinger 2001-2013
</metadata>
<g transform="translate(0.000000,400.000000) scale(0.100000,-0.100000)"
fill="#000000" stroke="none">
<path d="M2356 3719 l-228 -240 -52 -197 -51 -197 -160 -7 c-453 -21 -671 -45
-752 -84 -52 -26 -54 -48 -6 -72 139 -71 485 -122 824 -122 399 0 831 79 856
157 3 7 -13 21 -34 32 -64 32 -178 51 -484 79 l-76 7 39 135 c21 74 43 152 49
173 7 27 61 94 202 250 106 117 198 220 205 229 12 14 6 22 -41 57 -30 23 -56
41 -58 41 -2 0 -107 -108 -233 -241z m-293 -777 c21 -2 51 1 68 8 31 13 54 5
29 -10 -17 -11 -130 -13 -154 -4 -9 3 -16 11 -16 16 0 6 7 7 18 2 9 -4 34 -9
55 -12z"/>
<path d="M2715 2878 c-27 -11 -97 -31 -155 -44 -384 -87 -983 -81 -1347 12
-54 14 -109 28 -123 31 l-26 5 42 -434 c23 -238 43 -435 43 -438 1 -3 19 33
41 79 74 156 157 253 257 298 75 34 123 26 181 -33 38 -37 43 -47 40 -80 -2
-22 -10 -41 -21 -48 -16 -9 -25 -3 -66 43 -43 49 -50 53 -79 47 -34 -8 -98
-67 -144 -134 -39 -57 -102 -194 -117 -254 -14 -61 -14 -141 1 -156 50 -50
199 87 252 232 31 86 55 113 85 97 30 -16 27 -56 -10 -165 -18 -50 -49 -149
-70 -219 -37 -126 -58 -167 -86 -167 -28 0 -33 46 -13 117 10 37 22 77 26 88
6 13 -7 7 -42 -22 -67 -55 -105 -73 -159 -73 -25 0 -45 -3 -45 -7 1 -5 13
-137 29 -296 26 -264 30 -289 50 -311 92 -98 550 -154 911 -111 204 24 353 70
385 119 13 19 101 713 92 722 -2 2 -25 -15 -52 -37 -87 -72 -156 -94 -200 -65
-49 32 -33 79 74 211 23 28 41 53 41 58 0 20 -54 3 -89 -29 -61 -54 -99 -122
-171 -303 -52 -130 -72 -169 -92 -181 -23 -12 -28 -12 -43 0 -25 21 -15 69 39
186 51 111 55 125 28 101 -10 -9 -39 -26 -64 -37 -52 -23 -92 -19 -108 10 -9
16 -13 16 -60 -8 -61 -30 -97 -21 -106 28 l-6 30 -37 -29 c-93 -73 -191 -58
-191 30 0 72 93 292 128 303 11 4 27 3 37 0 23 -9 17 -38 -29 -139 -54 -119
-47 -166 18 -126 42 26 75 74 121 176 20 44 42 83 48 87 21 14 37 8 48 -15 9
-19 4 -41 -26 -118 -44 -112 -50 -156 -20 -151 33 6 65 31 76 60 5 15 53 137
106 270 76 194 101 246 119 254 17 8 27 8 39 -2 21 -18 19 -49 -11 -115 -60
-136 -174 -428 -174 -446 0 -10 4 -19 9 -19 27 0 181 131 181 155 0 5 11 34
25 63 20 44 29 53 47 50 12 -2 27 -13 33 -24 l11 -22 29 24 c85 69 189 44 176
-41 -5 -32 -27 -68 -81 -136 -50 -62 -59 -79 -41 -79 20 0 181 142 186 163 2
12 27 222 55 467 28 245 53 462 56 483 7 42 7 42 -61 15z"/>
<path d="M1304 965 c11 -17 35 -55 53 -85 l33 -56 21 -289 c11 -160 22 -296
25 -303 6 -19 174 -96 264 -122 105 -30 290 -38 385 -16 39 9 95 26 125 38 57
23 166 83 174 96 2 4 12 142 22 307 l17 300 49 79 c34 56 43 77 31 73 -192
-64 -325 -82 -603 -82 -277 1 -445 24 -599 83 -13 5 -13 1 3 -23z"/>
</g>
</svg>
